<svg width="24" height="27" viewBox="0 0 24 27" fill="none" xmlns="http://www.w3.org/2000/svg">
<path d="M6.09386 0.011538C5.13502 0.0866283 4.3148 0.311899 3.49458 0.73356C1.85415 1.57688 0.675812 3.03825 0.161733 4.85775L0 5.43537V13.2621V21.0888L0.161733 21.6664C0.854873 24.1213 2.77256 25.9061 5.26787 26.4144C5.73574 26.5126 6.23827 26.5184 11.9567 26.5184C18.5993 26.5184 18.4838 26.5242 19.4657 26.218C21.4007 25.6115 23.0065 24.0462 23.6592 22.1227C24.0058 21.1061 24 21.2159 24 14.4982V8.35233L20.696 4.8693C18.8765 2.95739 17.0917 1.07435 16.7336 0.698903L16.0809 0.00576185L11.2173 -1.43267e-05C8.54296 -1.43267e-05 6.23827 0.00576185 6.09386 0.011538ZM14.7754 2.96316C14.7986 3.87002 14.8274 4.1415 14.9487 4.6036C15.457 6.55594 16.67 8.05197 18.4433 8.92995C19.3444 9.37472 20.1011 9.55378 21.3025 9.60576L22.1516 9.64042V14.9603C22.1516 18.2238 22.1285 20.4361 22.0939 20.6845C21.8628 22.2729 20.8058 23.6361 19.3213 24.2715C18.4433 24.6527 18.6224 24.6411 11.9856 24.6411C5.34874 24.6411 5.5278 24.6527 4.64982 24.2715C3.30397 23.6996 2.40289 22.6541 1.97545 21.187L1.84838 20.7422V13.2621V5.78194L1.98123 5.31984C2.42022 3.80648 3.4426 2.68591 4.88087 2.14872C5.55668 1.90035 5.68375 1.89457 10.3162 1.88879L14.7408 1.88302L14.7754 2.96316ZM19.3097 6.09963C20.2339 7.07002 20.7884 7.69385 20.7365 7.7054C20.5921 7.74006 19.7199 7.49168 19.3271 7.31262C17.8773 6.63103 16.8375 5.18121 16.6296 3.55811L16.5949 3.24042L17.1957 3.8758C17.5307 4.22237 18.478 5.22742 19.3097 6.09963Z" fill="black"/>
<path d="M7.27796 8.16172C7.21442 8.17905 7.07579 8.25414 6.97182 8.33501C6.45196 8.72779 6.49817 9.44981 7.07001 9.83681L7.2664 9.96967H11.9855H16.7047L16.9011 9.83681C17.4787 9.44981 17.5133 8.72779 16.9762 8.31768L16.7624 8.15017L12.078 8.1444C9.50178 8.13862 7.34149 8.1444 7.27796 8.16172Z" fill="black"/>
<path d="M7.19131 12.4014C7.11045 12.4361 6.98337 12.5169 6.91406 12.5863C6.46352 13.0021 6.52128 13.6549 7.03536 14.0361C7.19709 14.1574 7.22019 14.1574 11.9855 14.1574C16.7509 14.1574 16.774 14.1574 16.9357 14.0361C17.5018 13.6144 17.5018 12.9097 16.9357 12.4881C16.774 12.3668 16.7393 12.3668 12.0549 12.3552C8.99926 12.3494 7.28373 12.3668 7.19131 12.4014Z" fill="black"/>
<path d="M7.07005 16.6816C6.75813 16.8549 6.59062 17.1841 6.62528 17.548C6.65994 17.9004 6.80434 18.1025 7.13358 18.27L7.38774 18.4029H11.9856H16.5834L16.8376 18.27C17.1783 18.0967 17.3112 17.8946 17.3459 17.5249C17.369 17.1726 17.2361 16.9126 16.9011 16.6874L16.7047 16.5545H11.9913C7.30109 16.5545 7.27799 16.5603 7.07005 16.6816Z" fill="black"/>
</svg>
