<svg width="24" height="24" viewBox="0 0 24 24" fill="none" xmlns="http://www.w3.org/2000/svg">
<path d="M11.0625 0.332815C10.3406 0.384377 9.38907 0.553127 8.64376 0.768752C4.41563 1.98281 1.12969 5.53594 0.253128 9.83438C-0.384372 12.9703 0.215628 16.1859 1.9125 18.7781C3.10782 20.6063 4.63125 21.9938 6.45 22.9313C7.11094 23.2734 8.04844 23.6531 8.33907 23.7C8.61094 23.7422 8.85001 23.6109 8.96251 23.3578C9.04688 23.1703 9.04688 23.0766 9.01876 22.0172L8.98594 20.8781L8.58282 20.9438C8.12813 21.0141 7.38282 20.9859 6.77344 20.8828C6.28125 20.7938 5.78438 20.55 5.47032 20.2313C5.22188 19.9828 5.15625 19.875 4.83282 19.1578C4.5375 18.5063 4.2 18.075 3.74532 17.7656C3.43594 17.55 3.17813 17.2688 3.19688 17.1656C3.225 17.025 3.42188 16.9641 3.76407 16.9875C4.425 17.0344 5.11407 17.5172 5.60625 18.2719C5.94375 18.7875 6.27657 19.1109 6.68438 19.3125C6.975 19.4578 7.05469 19.4766 7.47657 19.4906C7.95938 19.5094 8.44688 19.4344 8.84063 19.2844C9.03282 19.2094 9.04219 19.2 9.11251 18.8859C9.20157 18.4828 9.37501 18.1172 9.60938 17.8172L9.79219 17.5875L9.40782 17.5359C8.17032 17.3578 7.28907 17.0578 6.46875 16.5281C5.39532 15.8344 4.75782 14.7516 4.44844 13.1016C4.35469 12.5906 4.34063 11.2781 4.425 10.7953C4.56094 10.0125 4.88438 9.3 5.3625 8.70938L5.57344 8.45156L5.47969 8.16094C5.23594 7.37344 5.28282 6.41719 5.61094 5.47031C5.69532 5.23594 5.71407 5.22656 6.09375 5.24531C6.64688 5.27344 7.83282 5.75156 8.63907 6.26719L8.97188 6.48281L9.23438 6.43125C9.37501 6.40313 9.64219 6.34688 9.82969 6.30469C11.1 6.03281 12.9 6.03281 14.1703 6.30469C14.3578 6.34688 14.625 6.40313 14.7656 6.43125L15.0234 6.47813L15.4688 6.20625C16.5281 5.56406 17.7375 5.12813 18.1641 5.24063C18.2859 5.27344 18.3188 5.32031 18.4125 5.59219C18.6141 6.17813 18.6703 6.57656 18.6469 7.2375C18.6281 7.68281 18.5953 7.93125 18.525 8.15156L18.4266 8.45156L18.6328 8.70469C19.05 9.21563 19.3594 9.84844 19.5328 10.5281C19.6359 10.9453 19.65 12.4828 19.5516 13.0781C19.4016 14.0063 19.0172 14.9813 18.5672 15.5719C17.7938 16.5891 16.3922 17.2875 14.6156 17.5313L14.2078 17.5875L14.3906 17.8172C14.6109 18.0984 14.7891 18.4594 14.8875 18.8531C14.9531 19.0969 14.9672 19.4953 14.9813 21.2109C15.0047 23.5078 15.0047 23.5031 15.3188 23.6531C15.5344 23.7516 15.7078 23.7234 16.3922 23.4563C19.8516 22.125 22.5797 19.0875 23.5781 15.4734C24.2391 13.0688 24.0984 10.2797 23.2031 7.96875C22.3969 5.90625 20.9766 4.02188 19.2281 2.70938C17.3297 1.28906 15.1734 0.487502 12.8203 0.332815C12 0.276565 11.9203 0.276565 11.0625 0.332815Z" fill="white"/>
</svg>
