<svg width="111" height="106" viewBox="0 0 111 106" fill="none" xmlns="http://www.w3.org/2000/svg">
<path d="M100.946 5.52011C99.3844 9.08059 97.404 12.4617 95.0187 15.5667C84.5816 5.60292 70.4148 0 55.6553 0C25.1244 0 0 24.0125 0 53.2001C0 67.7594 6.24496 81.6977 17.2893 91.7443L19.342 93.4831C29.3744 101.556 42.0812 106 55.1927 106C84.2202 106 108.622 84.2784 110.689 56.595C112.207 43.0431 108.044 25.9031 100.946 5.52011ZM25.1967 92.0479C24.3004 93.1105 22.9271 93.7316 21.4959 93.7316C18.8794 93.7316 16.74 91.6753 16.74 89.1775C16.74 86.6796 18.8939 84.6234 21.4959 84.6234C22.5801 84.6234 23.6499 84.9822 24.4883 85.6446C26.5266 87.2178 26.8446 90.1021 25.1967 92.0479ZM100.714 76.1224C86.9812 93.6073 57.6502 87.7146 38.843 88.5564C38.843 88.5564 35.5037 88.7497 32.15 89.2741C32.15 89.2741 33.4076 88.7635 35.0411 88.17C48.2394 83.7815 54.4843 82.9259 62.5074 78.9928C77.6138 71.6511 92.5468 55.5876 95.6548 38.8754C89.9013 54.9527 72.4675 68.7668 56.5805 74.3835C45.6951 78.22 26.0351 81.9461 26.0351 81.9461L25.24 81.5459C11.8539 75.322 11.4491 47.6248 35.7784 38.6822C46.4324 34.7629 56.6238 36.9158 68.1307 34.2937C80.4183 31.5061 94.6284 22.7015 100.411 11.2196C106.887 29.5878 114.679 58.3476 100.714 76.1224V76.1224Z" fill="#00DF5E"/>
</svg>
